/* XPM */
static char *archlinux_gray[] = {
/* columns rows colors chars-per-pixel */
"56 56 16 1 ",
"  c None",
". c #030303",
"X c #0B0B0B",
"o c #171717",
"O c #282828",
"+ c #353535",
"@ c #474747",
"# c #585858",
"$ c #696969",
"% c #727272",
"& c #767676",
"* c #7C7C7C",
"= c #838383",
"- c #8B8B8B",
"; c #939393",
": c #9B9B9B",
/* pixels */
"                           oX                           ",
"                           #+                           ",
"                          o%#                           ",
"                          @&&O                          ",
"                         X$&*#                          ",
"                         O%&&&o                         ",
"                         #&&&=@                         ",
"                        o%&&%*%X                        ",
"                        @&&&%&=+                        ",
"                       o$*&&&%=$                        ",
"                       +***&&&*=O                       ",
"                      X$****&&&=#                       ",
"                      O*******&*=o                      ",
"                      #==*******-@                      ",
"                     O*===******=*o                     ",
"                     #-====******-@                     ",
"                     +=======****-*o                    ",
"                    o +========**=;@                    ",
"                   o&@X+=-=======*-*o                   ",
"                   #;-$O+*-========;@                   ",
"                  o=;-;=@+%--======-*X                  ",
"                  #;;;;;-*$&--======;@                  ",
"                 o=;;;;;;;------====-*o                 ",
"                 #:;;;;;;;--------===;@                 ",
"                O-::;;;;;;;;--------=-*o                ",
"                #:::::;;;;;;;---------;@                ",
"               O;::::::;;--==*****===--=o               ",
"               $::::::-=*&&&&%&%%%%&&**-@               ",
"              O;:::;-*&%%%%%&&&&&&&&&&&&&o              ",
"              $::;-*&%%%&&%%&&&&&&&&&&&&*@              ",
"             O;:-*&&&&&&&&%%%&&&%&%%&%&&&%o             ",
"            X%;*&&&&&&&&&&&&&&&&&&&%%%&&&&@             ",
"            O*&&%&&&&&%%&$@O+#%&&&&&&%%%%&%o            ",
"           X#&&&%%&&%&%&#o    O$&&&&&&%%%%&@            ",
"           O%&&&&&%%%&&$o      O%&&%&&&&&&&%o           ",
"          X#&&&&&&&%&&%O        @&%%&&&&&&&&@           ",
"          +&&&&%&&&%&&#         o$&&&&&&&&&&%O          ",
"         X$&&&%%&&&&&&+          @&&&&&&&&&&&#          ",
"         +&&&&&&%%&&&%o          +&&&%%%&&%&&%O         ",
"        o$&%&&&&&&&&&#X          o%&&%%%&%%&&&#X        ",
"        @&%%%%%%%%&&&#           X$&&&&&&$##%&&O        ",
"       o%&&&%%&%%%&&&@           X#&&&%&%&$@O+$#X       ",
"       @&&&&&&&&%%&&&@            #&&&&&%%&&$OX+O       ",
"      O%&&&&&&&&%&&&&@           X#&%&&&%%%&&%@X        ",
"      #&&&&&&&&&&&&&&#           X$&%%%%&&&&&&&#o       ",
"     O%&&%&&&&%%&&&&&#X          o$&&&&%&&&&&&%&$O      ",
"    X#&%&&&&%%&&&%#@Oo            o+@$%&&&&&%%&%&%+     ",
"    +%%%%&%&&&%#+o                   XO@$%&&&%%%&&$o    ",
"   o$&&&&&&&$@o                         XO#%&&&&&&&@    ",
"   @&&&&&%#+o                              o@$&&&&&%o   ",
"  o$&&&%#OX                                  o@$&&%&#   ",
"  @&&%#OX                                      o@$&&%O  ",
" O%&#+X                                          o@$*#X ",
" #$+X                                              o@%+ ",
"O+o                                                  O@X",
"X                                                     XX"
};
