/* XPM */
static char *archlinux_red[] = {
/* columns rows colors chars-per-pixel */
"56 56 23 1 ",
"  c None",
". c #2E0813",
"X c #3A1923",
"o c #4C081C",
"O c #561025",
"+ c #720F2D",
"@ c #6D2339",
"# c #7D2942",
"$ c #911037",
"% c #A3123D",
"& c #86213F",
"* c #9A1E43",
"= c #B31444",
"- c #92334F",
"; c #B72F58",
": c #B93C62",
"> c #D1174F",
", c #D4275A",
"< c #D63666",
"1 c #BA4367",
"2 c #DA4975",
"3 c #DE5780",
"4 c #E15882",
/* pixels */
"                           .                            ",
"                           $O                           ",
"                          .>*                           ",
"                          +>,X                          ",
"                         .=>,&                          ",
"                         o>>>,.                         ",
"                         $>>>,@                         ",
"                        .>>>>,;                         ",
"                        +>>>>><O                        ",
"                       .=>>>>>,-                        ",
"                       O,>>>>>,<X                       ",
"                       =,,,>>>><-                       ",
"                      o,,,,,,>>,<.                      ",
"                      *,,,,,,,>,<@                      ",
"                     X,<,,,,,,,,<<.                     ",
"                     &<<<<,,,,,,,2@                     ",
"                     O<<<<<<,,,,,<:.                    ",
"                    . O<<<<<<,,,,,2@                    ",
"                   .;@ O<<<<<<<,,,<:.                   ",
"                   #22-.O;<<<<<<<,<2@                   ",
"                  .2222<@O;<<<<<<<,2:.                  ",
"                  #222222<-;<<<<<<<<2@                  ",
"                 .222222222<<<<<<<<<21.                 ",
"                 -22222222222<<<<<<<<2@                 ",
"                X23222222222222<<<<<<21.                ",
"                -433222222222222<<<<<<2@                ",
"               X2333322222<<,,,,,,<<<<21.               ",
"               -4333322<,>>>>>>>>>>>>,,2@               ",
"              X23332<,>>>>>>>>>>>>>>>>>>;.              ",
"              -432<,>>>>>>>>>>>>>>>>>>>>,@              ",
"             O22<,>>>>>>>>>>>>>>>>>>>>>>>;.             ",
"             -2,>>>>>>>>>>>>>>>>>>>>>>>>>>+             ",
"            O,>>>>>>>>>>>=+oO$>>>>>>>>>>>>>.            ",
"            %>>>>>>>>>>>%.    o=>>>>>>>>>>>$            ",
"           o>>>>>>>>>>>=.      o>>>>>>>>>>>>.           ",
"           =>>>>>>>>>>>o        $>>>>>>>>>>>$           ",
"          O>>>>>>>>>>>%         .>>>>>>>>>>>>.          ",
"         .=>>>>>>>>>>>O          $>>>>>>>>>>>$          ",
"         +>>>>>>>>>>>>.          O>>>>>>>>>>>>o         ",
"        .=>>>>>>>>>>>=           .>>>>>>>>>>>>%         ",
"        +>>>>>>>>>>>>$           .=>>>>>>>%%>>>o        ",
"       .>>>>>>>>>>>>>$            =>>>>>>>>$o+=%        ",
"       $>>>>>>>>>>>>>$            %>>>>>>>>>=o.O.       ",
"      o>>>>>>>>>>>>>>$            =>>>>>>>>>>>+         ",
"      $>>>>>>>>>>>>>>$           .=>>>>>>>>>>>>%.       ",
"     o>>>>>>>>>>>>>>>%           .=>>>>>>>>>>>>>=o      ",
"     =>>>>>>>>>>>>%+o.            .O$=>>>>>>>>>>>>O     ",
"    O>>>>>>>>>>%+.                    o+=>>>>>>>>>>.    ",
"   .=>>>>>>>=+.                         .o$>>>>>>>>$    ",
"   +>>>>>>=O.                              .$=>>>>>>.   ",
"  .=>>>>%o                                   .+=>>>>$   ",
"  $>>>%o                                       .+=>>>o  ",
" .>>=O                                           .+>>%  ",
" $=+                                               .$>O ",
"o+.                                                  o+ ",
".                                                       "
};
