/* XPM */
static char *archlinux_green[] = {
/* columns rows colors chars-per-pixel */
"56 56 22 1 ",
"  c None",
". c #072A1B",
"X c #0B3825",
"o c #0B5033",
"O c #0C623E",
"+ c #195E41",
"@ c #10754A",
"# c #247050",
"$ c #0F8C57",
"% c #26845C",
"& c #149D63",
"* c #33946B",
"= c #14B06D",
"- c #2DB47A",
"; c #16C67B",
": c #37BA82",
"> c #43BA88",
", c #17D182",
"< c #2FD58F",
"1 c #47D99B",
"2 c #54DDA3",
"3 c #58E1A7",
/* pixels */
"                           X.                           ",
"                           $o                           ",
"                          .;&                           ",
"                          @,,X                          ",
"                         .=,,%                          ",
"                         o,,,<.                         ",
"                         &,,,<#                         ",
"                        X;,,,,-                         ",
"                        @,,,,,<o                        ",
"                       .=,,,,,<*                        ",
"                       O,,,,,,,<X                       ",
"                       =<,,,,,,<%                       ",
"                      o<<<<,,,,<<.                      ",
"                      &<<<<<<,,,<#                      ",
"                     X<<<<<<<<<,<<.                     ",
"                     %<<<<<<<<<<<1#                     ",
"                     O<<<<<<<<<<<<:.                    ",
"                    . +<<<<<<<<<<<1#                    ",
"                   .-+ O<<<<<<<<<<<:.                   ",
"                   #11*Xo:<<<<<<<<<1+                   ",
"                  .1111<#+-<<<<<<<<1:.                  ",
"                  #111111<*:<<<<<<<<1+                  ",
"                 .1211111111<<<<<<<<1>.                 ",
"                 %222111111111<<<<<<<1#                 ",
"                X12222211111111<<<<<<1>.                ",
"                *3222222111111111<<<<<2#                ",
"               X1322222211<<<<<<<<<<<<1>.               ",
"               *3322321<<,,,,,,,,,,,,,<1#               ",
"              X23332<<,,,,,,,,,,,,,,,,,,-.              ",
"              *332<,,,,,,,,,,,,,,,,,,,,,,#              ",
"             o22<,,,,,,,,,,,,,,,,,,,,,,,,-.             ",
"             *1<,,,,,,,,,,,,,,,,,,,,,,,,,,@             ",
"            o<,,,,,,,,,,,=@oO$;,,,,,,,,,,,;.            ",
"            &,,,,,,,,,,,&.    o=,,,,,,,,,,,$            ",
"           o,,,,,,,,,,,=.      o;,,,,,,,,,,;X           ",
"          .=,,,,,,,,,,;o        $,,,,,,,,,,,$           ",
"          O,,,,,,,,,,,&         .;,,,,,,,,,,;X          ",
"         .=,,,,,,,,,,,O          $,,,,,,,,,,,&          ",
"         @,,,,,,,,,,,;.          o,,,,,,,,,,,;o         ",
"        .=,,,,,,,,,,,=           .;,,,,,,,,,,,&         ",
"        @,,,,,,,,,,,,&           .=,,,,,,;&&;,,o        ",
"       .;,,,,,,,,,,,,$            =,,,,,,,;$o@==.       ",
"       $,,,,,,,,,,,,,$            =,,,,,,,,,=o.oX       ",
"      o;,,,,,,,,,,,,,$            =,,,,,,,,,,;@.        ",
"      &,,,,,,,,,,,,,,&           .=,,,,,,,,,,,,&.       ",
"     o,,,,,,,,,,,,,,,&           .=,,,,,,,,,,,,,=o      ",
"    .=,,,,,,,,,,,;&@o.            .o$=;,,,,,,,,,,;O     ",
"    O,,,,,,,,,;&O.                   .o@=,,,,,,,,,;.    ",
"   .=,,,,,,,=@X                         .o&;,,,,,,,$    ",
"   @,,,,,,=O.                              X$=,,,,,;X   ",
"  .=,,,,&o                                   .@=,,,,$   ",
"  $,,,&o                                       .@=,,;o  ",
" X;,=o                                           .@;,&  ",
" &=O.                                              X$;o ",
"o@.                                                  o@.",
".                                                       "
};
